<?xml version="1.0" encoding="UTF-8"?>
<svg version="1.1" xmlns="http://www.w3.org/2000/svg" width="100" height="100">
<path d="M0 0 C1.87171875 -0.00386719 1.87171875 -0.00386719 3.78125 -0.0078125 C5.74578125 0.00378906 5.74578125 0.00378906 7.75 0.015625 C9.0596875 0.00789062 10.369375 0.00015625 11.71875 -0.0078125 C12.9665625 -0.00523437 14.214375 -0.00265625 15.5 0 C16.64984375 0.00225586 17.7996875 0.00451172 18.984375 0.00683594 C21.75 0.265625 21.75 0.265625 23.75 2.265625 C23.9453125 4.6484375 23.9453125 4.6484375 23.875 7.390625 C23.85695313 8.30070313 23.83890625 9.21078125 23.8203125 10.1484375 C23.79710938 10.84710938 23.77390625 11.54578125 23.75 12.265625 C24.70890137 12.25515137 25.66780273 12.24467773 26.65576172 12.23388672 C30.20780719 12.19773172 33.75983634 12.17474107 37.31201172 12.15576172 C38.85045098 12.14569382 40.38887107 12.13203854 41.92724609 12.11474609 C44.13644133 12.09053183 46.34538395 12.07915009 48.5546875 12.0703125 C49.24432587 12.05998993 49.93396423 12.04966736 50.64450073 12.03903198 C52.34800906 12.03863022 54.05085943 12.14371474 55.75 12.265625 C57.75 14.265625 57.75 14.265625 57.99050903 16.21450806 C57.98606781 17.009487 57.98162659 17.80446594 57.97705078 18.62353516 C57.97689972 19.52431793 57.97674866 20.42510071 57.97659302 21.35317993 C57.96627045 22.32717743 57.95594788 23.30117493 57.9453125 24.3046875 C57.9424826 25.30067963 57.93965271 26.29667175 57.93673706 27.32284546 C57.9255184 30.51222618 57.90041081 33.70132878 57.875 36.890625 C57.86497238 39.04947512 57.85584615 41.20832963 57.84765625 43.3671875 C57.82557361 48.66676199 57.79207958 53.96617363 57.75 59.265625 C55.78588867 57.79370117 55.78588867 57.79370117 53.75 55.265625 C53.34409087 52.328907 53.16864645 49.75325194 53.17578125 46.81640625 C53.16161667 46.00318405 53.14745209 45.18996185 53.13285828 44.35209656 C53.09099053 41.76063728 53.07571953 39.16987482 53.0625 36.578125 C53.03347809 33.97598654 52.99899812 31.37402598 52.96000671 28.77201843 C52.93745459 27.15394636 52.92167472 25.5357636 52.91316223 23.91755676 C53.22013779 20.29267607 53.22013779 20.29267607 51.75 17.265625 C49.01649252 17.16513977 46.30822108 17.12946239 43.57421875 17.13623047 C42.71736481 17.13447815 41.86051086 17.13272583 40.97769165 17.13092041 C38.1309408 17.12650083 35.28425153 17.12944025 32.4375 17.1328125 C30.46834298 17.13213949 28.49918603 17.13116949 26.5300293 17.12991333 C22.39729015 17.12843621 18.26457258 17.13059136 14.13183594 17.13525391 C8.82175479 17.1409512 3.51172419 17.13767227 -1.7983551 17.13168144 C-5.86625553 17.1280762 -9.93414389 17.12921424 -14.00204468 17.13180923 C-15.96056118 17.13247861 -17.91907876 17.13164973 -19.87759399 17.12932968 C-22.609832 17.12680376 -25.34198697 17.13064289 -28.07421875 17.13623047 C-29.30076675 17.13319412 -29.30076675 17.13319412 -30.55209351 17.13009644 C-34.20057616 16.79808859 -34.20057616 16.79808859 -37.25 18.265625 C-37.35012401 20.47213156 -37.3808118 22.68184886 -37.3828125 24.890625 C-37.38376923 25.55271973 -37.38472595 26.21481445 -37.38571167 26.89697266 C-37.38639326 28.29915461 -37.38454042 29.7013397 -37.38037109 31.10351562 C-37.37502246 33.25658213 -37.3803167 35.40944002 -37.38671875 37.5625 C-37.38605796 38.92187546 -37.38477679 40.2812508 -37.3828125 41.640625 C-37.38168457 42.88585938 -37.38055664 44.13109375 -37.37939453 45.4140625 C-37.57572127 48.16467931 -37.57572127 48.16467931 -36.25 49.265625 C-34.40968011 49.38899674 -32.56470589 49.44353808 -30.72045898 49.47094727 C-29.53931015 49.49089249 -28.35816132 49.51083771 -27.14122009 49.53138733 C-25.8558284 49.54809982 -24.57043671 49.56481232 -23.24609375 49.58203125 C-21.93794205 49.60281235 -20.62979034 49.62359344 -19.28199768 49.64500427 C-15.79844553 49.700288 -12.3148334 49.74966931 -8.83117676 49.79785156 C-5.2786727 49.84802074 -1.7262561 49.90373067 1.82617188 49.95898438 C8.80070546 50.06664291 15.77531798 50.16807067 22.75 50.265625 C20.61889298 52.8205016 19.43454042 54.14113295 16.1050415 54.74664307 C14.59946686 54.7333194 14.59946686 54.7333194 13.06347656 54.71972656 C11.92259583 54.71942444 10.78171509 54.71912231 9.60626221 54.71881104 C8.38010193 54.69816589 7.15394165 54.67752075 5.890625 54.65625 C4.63111023 54.65059021 3.37159546 54.64493042 2.07391357 54.63909912 C-1.26709024 54.62050547 -4.60699467 54.58459828 -7.94769287 54.5402832 C-11.35956339 54.49929002 -14.77154769 54.48107959 -18.18359375 54.4609375 C-24.8726992 54.41682164 -31.56128614 54.3498715 -38.25 54.265625 C-38.13201056 58.23515399 -38.00778201 62.20443281 -37.87768555 66.17358398 C-37.83428777 67.52476647 -37.7926163 68.87600553 -37.75268555 70.22729492 C-37.69510048 72.16599201 -37.63085702 74.10448776 -37.56640625 76.04296875 C-37.52974854 77.21077881 -37.49309082 78.37858887 -37.45532227 79.58178711 C-37.54923812 82.18342295 -37.54923812 82.18342295 -36.25 83.265625 C-34.68551617 83.38825888 -33.11567228 83.44342022 -31.54663086 83.47094727 C-30.04518776 83.5008651 -30.04518776 83.5008651 -28.51341248 83.53138733 C-27.4248848 83.54809982 -26.33635712 83.56481232 -25.21484375 83.58203125 C-23.5522628 83.6132029 -23.5522628 83.6132029 -21.85609436 83.64500427 C-18.29996192 83.71062123 -14.74375297 83.76944096 -11.1875 83.828125 C-8.78319507 83.87129868 -6.37889801 83.91491258 -3.97460938 83.95898438 C1.93351185 84.06631492 7.84170991 84.16805831 13.75 84.265625 C14.41 85.585625 15.07 86.905625 15.75 88.265625 C8.48307672 88.3119205 1.21618512 88.34747993 -6.05085564 88.36924934 C-9.42506994 88.37969642 -12.79918352 88.39387225 -16.17333984 88.41650391 C-20.05048318 88.44067385 -23.92748277 88.45209011 -27.8046875 88.4609375 C-29.01929657 88.47126007 -30.23390564 88.48158264 -31.48532104 88.49221802 C-32.60633209 88.49236908 -33.72734314 88.49252014 -34.88232422 88.49267578 C-35.87271698 88.497117 -36.86310974 88.50155823 -37.8835144 88.50613403 C-40.25 88.265625 -40.25 88.265625 -42.25 86.265625 C-42.50396729 83.30517578 -42.50396729 83.30517578 -42.50878906 79.4609375 C-42.5122937 78.76160095 -42.51579834 78.0622644 -42.51940918 77.34173584 C-42.52822876 75.02459862 -42.5223767 72.70776545 -42.515625 70.390625 C-42.51697159 68.78401633 -42.51891207 67.17740805 -42.52142334 65.57080078 C-42.5243749 62.20145798 -42.52007597 58.83222113 -42.51074219 55.46289062 C-42.49934758 51.13823006 -42.50590689 46.81381771 -42.51788712 42.48916626 C-42.52510488 39.1709607 -42.52281819 35.85281425 -42.51763153 32.53460693 C-42.5162948 30.939758 -42.51794358 29.34490375 -42.52259064 27.75006104 C-42.52765456 25.52333302 -42.51994788 23.29701024 -42.50878906 21.0703125 C-42.50719788 19.80171387 -42.50560669 18.53311523 -42.50396729 17.22607422 C-42.25 14.265625 -42.25 14.265625 -40.25 12.265625 C-37.81255103 12.09074246 -35.4906392 12.03385095 -33.0546875 12.0703125 C-32.34724396 12.0731424 -31.63980042 12.07597229 -30.91091919 12.07888794 C-28.6487749 12.09009363 -26.38702485 12.11519821 -24.125 12.140625 C-22.59245363 12.15065433 -21.05990106 12.15978026 -19.52734375 12.16796875 C-15.76807699 12.19003414 -12.00910536 12.22456604 -8.25 12.265625 C-8.27320313 11.56695312 -8.29640625 10.86828125 -8.3203125 10.1484375 C-8.33835938 9.23835937 -8.35640625 8.32828125 -8.375 7.390625 C-8.39820313 6.48570313 -8.42140625 5.58078125 -8.4453125 4.6484375 C-8.0125935 -0.63073431 -4.3720195 0.00857739 0 0 Z M-4.25 6.265625 C-4.25 8.245625 -4.25 10.225625 -4.25 12.265625 C3.67 12.265625 11.59 12.265625 19.75 12.265625 C19.75 10.285625 19.75 8.305625 19.75 6.265625 C17.30013068 3.81575568 16.612922 4.00931189 13.25 4 C11.9196875 3.99613281 11.9196875 3.99613281 10.5625 3.9921875 C9.634375 3.99992188 8.70625 4.00765625 7.75 4.015625 C6.3578125 4.00402344 6.3578125 4.00402344 4.9375 3.9921875 C4.050625 3.99476562 3.16375 3.99734375 2.25 4 C1.4353125 4.00225586 0.620625 4.00451172 -0.21875 4.00683594 C-2.47630451 4.08388207 -2.47630451 4.08388207 -4.25 6.265625 Z " fill="#000000" transform="translate(42.25,5.734375)"/>
<path d="M0 0 C3.3 0 6.6 0 10 0 C10.33 1.98 10.66 3.96 11 6 C11.7425 5.484375 12.485 4.96875 13.25 4.4375 C16 3 16 3 18.0625 3.0625 C20.57074331 4.27616612 22.14442027 5.94560816 24 8 C23.690625 8.763125 23.38125 9.52625 23.0625 10.3125 C22.32106407 12.18789677 21.63771783 14.08684652 21 16 C22.98 16.33 24.96 16.66 27 17 C27 20.3 27 23.6 27 27 C25.35 27.33 23.7 27.66 22 28 C22.350625 28.7425 22.70125 29.485 23.0625 30.25 C24.07601616 33.22298074 24.27258404 34.18213534 23 37 C21.1875 39.3125 21.1875 39.3125 19 41 C16.01736939 40.81358559 13.61292041 39.39977879 11 38 C10.67 39.98 10.34 41.96 10 44 C6.7 44 3.4 44 0 44 C0 42.02 0 40.04 0 38 C-2.64 38.99 -5.28 39.98 -8 41 C-9.98 39.02 -11.96 37.04 -14 35 C-13.690625 34.236875 -13.38125 33.47375 -13.0625 32.6875 C-12.32106407 30.81210323 -11.63771783 28.91315348 -11 27 C-12.98 27 -14.96 27 -17 27 C-17 23.7 -17 20.4 -17 17 C-15.02 16.67 -13.04 16.34 -11 16 C-11.515625 15.2575 -12.03125 14.515 -12.5625 13.75 C-14 11 -14 11 -13.9375 8.9375 C-12.67142535 6.32094571 -11.30117954 4.77519565 -9 3 C-7 3.1875 -7 3.1875 -5 4 C-4.2575 4.185625 -3.515 4.37125 -2.75 4.5625 C-2.1725 4.706875 -1.595 4.85125 -1 5 C-0.67 3.35 -0.34 1.7 0 0 Z M5 4 C4.67 5.98 4.34 7.96 4 10 C0.7 10.33 -2.6 10.66 -6 11 C-6.33 14.3 -6.66 17.6 -7 21 C-8.98 21 -10.96 21 -13 21 C-12.34 21.66 -11.68 22.32 -11 23 C-9.68 23 -8.36 23 -7 23 C-6 30.625 -6 30.625 -6 34 C-5.0925 33.814375 -4.185 33.62875 -3.25 33.4375 C-0.31685676 33.04265379 1.2644657 33.05308428 4 34 C4.33 35.65 4.66 37.3 5 39 C5.33 39 5.66 39 6 39 C6 37.35 6 35.7 6 34 C9.3 33.67 12.6 33.34 16 33 C15.979375 32.0925 15.95875 31.185 15.9375 30.25 C15.9889755 27.57327412 16.2215017 25.53011948 17 23 C18.98 22.67 20.96 22.34 23 22 C23 21.67 23 21.34 23 21 C21.02 21 19.04 21 17 21 C16.505 16.05 16.505 16.05 16 11 C12.7 10.67 9.4 10.34 6 10 C6 8.02 6 6.04 6 4 C5.67 4 5.34 4 5 4 Z " fill="#000000" transform="translate(73,56)"/>
<path d="M0 0 C2.23918419 1.8057937 2.84945187 3.08353828 3.3125 5.90234375 C3.52133602 9.40687323 3.32891469 11.45180884 1.5 14.5 C-2.03588973 16.62153384 -4.97901723 16.791013 -9 16 C-11.5 14.5 -11.5 14.5 -13 12 C-13.6932981 8.11115549 -13.57095716 5.06034902 -11.6875 1.5625 C-8.04021759 -1.81461334 -4.54561327 -1.05523165 0 0 Z M-7 5 C-7.33 6.65 -7.66 8.3 -8 10 C-5.525 10.495 -5.525 10.495 -3 11 C-2.67 9.35 -2.34 7.7 -2 6 C-3.65 5.67 -5.3 5.34 -7 5 Z " fill="#000000" transform="translate(83,70)"/>
<path d="M0 0 C3 0.125 3 0.125 4 1.125 C4.125 4.125 4.125 4.125 4 7.125 C3 8.125 3 8.125 0 8.25 C-3 8.125 -3 8.125 -4 7.125 C-4.125 4.125 -4.125 4.125 -4 1.125 C-3 0.125 -3 0.125 0 0 Z " fill="#000000" transform="translate(50,43.875)"/>
</svg>
