<?xml version="1.0" encoding="UTF-8"?>
<svg version="1.1" xmlns="http://www.w3.org/2000/svg" width="31" height="36" viewBox="0 0 31 36">
  <path d="M0 0 C10.23 0 20.46 0 31 0 C31 11.88 31 23.76 31 36 C20.77 36 10.54 36 0 36 C0 24.12 0 12.24 0 0 Z" fill="#FFFFFF" transform="translate(0,0)"/>
  <path d="M0 0 C1.36125 0.37125 1.36125 0.37125 2.75 0.75 C3.08 1.74 3.41 2.73 3.75 3.75 C4.41 3.75 5.07 3.75 5.75 3.75 C6.08 2.76 6.41 1.77 6.75 0.75 C9.5 0 9.5 0 12.75 -0.25 C15.1875 1.3125 15.1875 1.3125 16.75 3.75 C16.5 7 16.5 7 15.75 9.75 C14.76 10.08 13.77 10.41 12.75 10.75 C12.75 11.41 12.75 12.07 12.75 12.75 C13.74 13.08 14.73 13.41 15.75 13.75 C16.5 16.5 16.5 16.5 16.75 19.75 C15.1875 22.1875 15.1875 22.1875 12.75 23.75 C9.5 23.5 9.5 23.5 6.75 22.75 C6.42 21.76 6.09 20.77 5.75 19.75 C5.09 19.75 4.43 19.75 3.75 19.75 C3.42 20.74 3.09 21.73 2.75 22.75 C0 23.5 0 23.5 -3.25 23.75 C-5.6875 22.1875 -5.6875 22.1875 -7.25 19.75 C-7 16.5 -7 16.5 -6.25 13.75 C-5.26 13.42 -4.27 13.09 -3.25 12.75 C-3.25 12.09 -3.25 11.43 -3.25 10.75 C-4.24 10.42 -5.23 10.09 -6.25 9.75 C-7 7 -7 7 -7.25 3.75 C-5.03899004 0.30082446 -4.13051831 -0.31773218 0 0 Z" fill="#000000" transform="translate(11.25,7.25)"/>
  <path d="M0 0 C1.36125 0.37125 1.36125 0.37125 2.75 0.75 C3.08 1.74 3.41 2.73 3.75 3.75 C4.41 3.75 5.07 3.75 5.75 3.75 C6.41 6.72 7.07 9.69 7.75 12.75 C3.75 14.75 3.75 14.75 1 13.875 C0.2575 13.50375 -0.485 13.1325 -1.25 12.75 C-1.6521875 13.8946875 -1.6521875 13.8946875 -2.0625 15.0625 C-3.19424112 17.62380884 -4.16223401 18.94692938 -6.25 20.75 C-6.875 18.4375 -6.875 18.4375 -7.25 15.75 C-6.59 14.76 -5.93 13.77 -5.25 12.75 C-4.59 12.75 -3.93 12.75 -3.25 12.75 C-3.25 12.09 -3.25 11.43 -3.25 10.75 C-4.24 10.42 -5.23 10.09 -6.25 9.75 C-7 7 -7 7 -7.25 3.75 C-5.03899004 0.30082446 -4.13051831 -0.31773218 0 0 Z" fill="#000000" transform="translate(11.25,7.25)"/>
  <path d="M0 0 C4.75 0.875 4.75 0.875 7 2 C7 3.65 7 5.3 7 7 C6.34 7 5.68 7 5 7 C4.67 7.99 4.34 8.98 4 10 C2.02 10.33 0.04 10.66 -2 11 C-3.25 9.4375 -3.25 9.4375 -4 7 C-2.93237266 4.42998985 -1.53455057 2.3469597 0 0 Z" fill="#000000" transform="translate(10,20)"/>
  <path d="M0 0 C0.66 1.65 1.32 3.3 2 5 C0.02 5.99 0.02 5.99 -2 7 C-2.99 6.34 -3.98 5.68 -5 5 C-5 3 -5 3 -3.625 1.375 C-2 0 -2 0 0 0 Z" fill="#000000" transform="translate(17,15)"/>
  <path d="M0 0 C0.99 0 1.98 0 3 0 C3 1.65 3 3.3 3 5 C2.34 5 1.68 5 1 5 C0.67 5.99 0.34 6.98 0 8 C-0.99 8 -1.98 8 -3 8 C-2.25 2.25 -2.25 2.25 0 0 Z" fill="#000000" transform="translate(14,22)"/>
</svg>
